<svg id="visual" viewBox="0 0 900 600" width="900" height="600" xmlns="http://www.w3.org/2000/svg" xmlns:xlink="http://www.w3.org/1999/xlink" version="1.1"><rect x="0" y="0" width="900" height="600" fill="#E5E5E5"></rect><defs><linearGradient id="grad1_0" x1="33.3%" y1="0%" x2="100%" y2="100%"><stop offset="20%" stop-color="#e5e5e5" stop-opacity="1"></stop><stop offset="80%" stop-color="#e5e5e5" stop-opacity="1"></stop></linearGradient></defs><defs><linearGradient id="grad2_0" x1="0%" y1="0%" x2="66.7%" y2="100%"><stop offset="20%" stop-color="#e5e5e5" stop-opacity="1"></stop><stop offset="80%" stop-color="#e5e5e5" stop-opacity="1"></stop></linearGradient></defs><g transform="translate(900, 0)"><path d="M0 243.4C-36 226 -71.9 208.6 -110 190.5C-148.1 172.4 -188.2 153.6 -210.8 121.7C-233.3 89.8 -238.4 44.9 -243.4 0L0 0Z" fill="#7FC0FF"></path></g><g transform="translate(0, 600)"><path d="M0 -243.4C42.6 -237 85.2 -230.7 121.7 -210.8C158.2 -190.9 188.6 -157.4 207.8 -120C227.1 -82.6 235.2 -41.3 243.4 0L0 0Z" fill="#7FC0FF"></path></g></svg>