<svg id="visual" viewBox="0 0 900 600" width="900" height="600" xmlns="http://www.w3.org/2000/svg" xmlns:xlink="http://www.w3.org/1999/xlink" version="1.1"><rect x="0" y="0" width="900" height="600" fill="#F0F4F5"></rect><defs><linearGradient id="grad1_0" x1="33.3%" y1="0%" x2="100%" y2="100%"><stop offset="20%" stop-color="#f0f4f5" stop-opacity="1"></stop><stop offset="80%" stop-color="#f0f4f5" stop-opacity="1"></stop></linearGradient></defs><defs><linearGradient id="grad2_0" x1="0%" y1="0%" x2="66.7%" y2="100%"><stop offset="20%" stop-color="#f0f4f5" stop-opacity="1"></stop><stop offset="80%" stop-color="#f0f4f5" stop-opacity="1"></stop></linearGradient></defs><g transform="translate(900, 0)"><path d="M0 243.4C-38.4 230.2 -76.7 216.9 -114.5 198.3C-152.3 179.7 -189.4 155.6 -210.8 121.7C-232.1 87.7 -237.8 43.9 -243.4 0L0 0Z" fill="#00D6CE"></path></g><g transform="translate(0, 600)"><path d="M0 -243.4C43.5 -237.6 87 -231.7 121.7 -210.8C156.3 -189.8 182.1 -153.7 200.9 -116C219.7 -78.3 231.5 -39.2 243.4 0L0 0Z" fill="#00D6CE"></path></g></svg>